<svg width="45" height="45" viewBox="0 0 45 45" fill="none" xmlns="http://www.w3.org/2000/svg">
<path d="M44.1277 9.04359C44.1248 9.04359 44.1219 9.04359 44.119 9.04359H41.162V8.03177C41.178 7.63129 40.9189 7.27137 40.534 7.1595C38.4812 6.62154 36.3672 6.35179 34.245 6.35702C30.756 6.35702 26.0021 7.14206 22.4869 10.7183C18.9979 7.10717 14.2091 6.35702 10.7288 6.35702C8.60661 6.35179 6.49268 6.62154 4.43981 7.1595C4.05493 7.27137 3.79587 7.63129 3.81179 8.03177V9.03487H0.872262C0.390555 9.03487 0 9.42542 0 9.90713V37.7672C0 38.2489 0.390555 38.6394 0.872262 38.6394C1.02207 38.639 1.16927 38.6 1.29967 38.526C1.3869 38.4824 10.1095 33.7112 22.2863 36.7815H22.4171H22.4956C22.5652 36.7899 22.6354 36.7899 22.705 36.7815C34.9167 33.685 43.6393 38.4475 43.6916 38.526C43.9615 38.6819 44.294 38.6819 44.5639 38.526C44.8321 38.3712 44.9981 38.0857 45 37.7759V9.91585C45 9.43415 44.6096 9.04359 44.1277 9.04359ZM1.74452 36.3803V10.7881H3.82923V32.6644C3.82378 33.1462 4.20986 33.5411 4.69157 33.5465C4.73867 33.5471 4.78577 33.5438 4.83233 33.5367C6.63682 33.2612 8.45865 33.1154 10.284 33.1006C12.8124 33.0567 15.3303 33.437 17.7331 34.2258C12.3071 33.5696 6.80332 34.3113 1.74452 36.3803ZM10.284 31.3648C8.69743 31.3684 7.11275 31.4703 5.53886 31.6701V8.72085C7.23716 8.34251 8.97143 8.14941 10.7114 8.14516C13.9736 8.14516 18.4745 8.89531 21.5972 12.4192L21.6234 34.1473C19.8091 32.961 16.2677 31.3648 10.284 31.3648ZM23.3679 12.4192C26.4906 8.9302 30.9915 8.14516 34.2537 8.14516C35.9936 8.15029 37.7278 8.34327 39.4262 8.72085V31.6701C37.8612 31.4685 36.2852 31.3636 34.7073 31.3561C28.7585 31.3561 25.2084 32.9523 23.3679 34.1386V12.4192ZM43.2468 36.3803C38.1772 34.3056 32.6608 33.5639 27.2233 34.2258C29.6374 33.4342 32.1673 33.0538 34.7073 33.1006C36.5441 33.1108 38.3777 33.2537 40.1938 33.528C40.6701 33.6003 41.1148 33.2727 41.1871 32.7965C41.1942 32.7499 41.1975 32.7028 41.1969 32.6557V10.7881H43.2816L43.2468 36.3803Z" fill="#3D351A"/>
</svg>
