<svg width="25" height="25" viewBox="0 0 25 25" fill="none" xmlns="http://www.w3.org/2000/svg">
<path d="M22.0711 14.9289C20.9819 13.8398 19.6855 13.0335 18.2711 12.5454C19.786 11.502 20.7812 9.75578 20.7812 7.78125C20.7812 4.59348 18.1878 2 15 2C11.8122 2 9.21875 4.59348 9.21875 7.78125C9.21875 9.75578 10.214 11.502 11.729 12.5454C10.3145 13.0335 9.01813 13.8398 7.92895 14.9289C6.0402 16.8177 5 19.3289 5 22H6.5625C6.5625 17.3475 10.3475 13.5625 15 13.5625C19.6525 13.5625 23.4375 17.3475 23.4375 22H25C25 19.3289 23.9598 16.8177 22.0711 14.9289ZM15 12C12.6738 12 10.7812 10.1075 10.7812 7.78125C10.7812 5.455 12.6738 3.5625 15 3.5625C17.3262 3.5625 19.2188 5.455 19.2188 7.78125C19.2188 10.1075 17.3262 12 15 12Z" fill="#3D351A"/>
</svg>
